<svg version="1.1" width="1704" height="1706.67" viewBox="0 0 1278 1280" xmlns="http://www.w3.org/2000/svg" xmlns:xlink="http://www.w3.org/1999/xlink" overflow="hidden"><style>
.MsftOfcThm_Background1_Fill {
 fill:#FFFFFF; 
}
</style>
<g stroke="none" fill="#FFEB3B" transform="matrix(0.1,0,0,-0.1,0,1280)"><path d=" M 6717 12420 C 6613 12387 6518 12313 6403 12177 C 6171 11900 5975 11524 5510 10460 C 5098 9519 4902 9153 4700 8950 C 4584 8834 4468 8784 4255 8760 C 4111 8744 3774 8748 3503 8770 C 3239 8791 3174 8797 2615 8860 C 1888 8942 1701 8958 1385 8969 C 740 8990 408 8906 304 8692 C 278 8639 273 8508 295 8434 C 355 8226 546 7964 890 7620 C 1092 7417 1286 7238 1735 6840 C 1911 6684 2105 6511 2165 6456 C 2701 5965 2942 5685 3027 5452 C 3050 5390 3052 5376 3047 5250 C 3035 4947 2909 4594 2460 3600 C 2029 2647 1878 2252 1810 1905 C 1743 1556 1797 1347 1978 1258 C 2044 1225 2046 1225 2185 1226 C 2308 1227 2339 1231 2442 1258 C 2753 1341 3185 1550 3885 1955 C 5021 2612 5288 2748 5610 2835 C 5811 2888 5917 2878 6105 2786 C 6388 2648 6653 2436 7470 1696 C 7966 1246 8232 1018 8456 850 C 8986 451 9320 355 9507 548 C 9615 659 9657 849 9647 1175 C 9635 1528 9577 1870 9369 2802 C 9159 3750 9100 4102 9100 4400 C 9101 4686 9152 4808 9342 4985 C 9559 5186 9866 5384 10635 5820 C 11704 6426 12007 6624 12270 6889 C 12444 7063 12506 7185 12498 7330 C 12494 7399 12489 7417 12458 7467 C 12367 7616 12150 7728 11777 7820 C 11454 7899 11069 7953 10260 8035 C 9151 8146 8740 8222 8466 8363 C 8336 8430 8267 8512 8174 8705 C 8061 8940 7949 9337 7800 10040 C 7596 11000 7516 11336 7425 11620 C 7244 12181 7046 12443 6807 12439 C 6789 12439 6749 12431 6717 12420 Z" stroke="none" stroke-width="1" stroke-dasharray="" stroke-dashoffset="1" fill="#FFFFFF" fill-opacity="1"/></g></svg>